<svg xmlns="http://www.w3.org/2000/svg" version="1.1" xmlns:xlink="http://www.w3.org/1999/xlink" width="512" height="512" x="0" y="0" viewBox="0 0 64 64" style="enable-background:new 0 0 512 512" xml:space="preserve" class=""><g><path fill="#ffb92d" d="M49 24v39H5V24z" opacity="1" data-original="#ffb92d" class=""></path><path fill="#f08616" d="M46.074 24v28.213a8.287 8.287 0 0 1-8.287 8.287H5V63h44V24z" opacity="1" data-original="#f08616" class=""></path><path fill="#ffb92d" d="m54 57-5 6V24h10v39z" opacity="1" data-original="#ffb92d" class=""></path><path fill="#f08616" d="M54 24v33l5 6V24z" opacity="1" data-original="#f08616" class=""></path><path fill="#f39e45" d="m54 8 5 16H49zM54 57l5 6H49z" opacity="1" data-original="#f39e45"></path><path fill="#ffb92d" d="M36 49v3c0 .36-.1.71-.27 1-.35.6-.99 1-1.73 1-.55 0-1.05-.22-1.41-.59-.37-.36-.59-.86-.59-1.41v2c0 1.1-.9 2-2 2-.55 0-1.05-.22-1.41-.59-.37-.36-.59-.86-.59-1.41v-5h4z" opacity="1" data-original="#ffb92d" class=""></path><path fill="#9bd76b" d="M39 46v1h-.76c-.16 0-.31.04-.45.11l-1.17.89-.62.47L34 50l-3-2-3 2v-2l-3 2-2-2-3 2-2.66-2-1.07-.8c-.18-.13-.39-.2-.6-.2H15v-1c0-.55.45-1 1-1h22c.55 0 1 .45 1 1z" opacity="1" data-original="#9bd76b" class=""></path><path fill="#ff6d6f" d="M36.62 48a2.505 2.505 0 0 1 1.65 4.27c-.42.42-1.01.7-1.65.73H34c1.1 0 2-.9 2-2v-2.53z" opacity="1" data-original="#ff6d6f"></path><path fill="#f4b18b" d="M37 53v1c0 3.31-2.69 6-6 6h-8a6 6 0 0 1-6-6v-1.05c.16.03.33.05.5.05H28v1c0 .55.22 1.05.59 1.41.36.37.86.59 1.41.59 1.1 0 2-.9 2-2v-1h4.62zM37 44v1H17v-1c0-3.31 2.69-6 6-6h8c3.31 0 6 2.69 6 6z" opacity="1" data-original="#f4b18b"></path><path fill="#ff6d6f" d="M28 50v3H17.5a2.5 2.5 0 0 1-2.5-2.5c0-.66.26-1.26.68-1.71s1-.74 1.65-.78l.01-.01L20 50l3-2 2 2 3-2v1.2z" opacity="1" data-original="#ff6d6f"></path><path fill="#cc8964" d="M33.5 38.552v.948a3 3 0 0 1-3 3H17.197c-.124.48-.197.981-.197 1.5v1h20v-1a6 6 0 0 0-3.5-5.448zM36.62 53h-1.908c-.195 2.514-2.273 4.5-4.837 4.5H18.131a6.006 6.006 0 0 0 3.019 2.21c.58.19 1.2.29 1.85.29h8c3.31 0 6-2.69 6-6v-1z" opacity="1" data-original="#cc8964" class=""></path><path fill="#ffb92d" d="M10 1h44v7H10z" opacity="1" data-original="#ffb92d" class=""></path><path fill="#ffc757" d="m54 8-5 16H5l5-16z" opacity="1" data-original="#ffc757" class=""></path><g fill="#333"><path d="M14 46v1a1 1 0 0 0 1 1h.069A3.488 3.488 0 0 0 14 50.5c0 1.391.822 2.585 2 3.149V54a6.982 6.982 0 0 0 4.838 6.659A6.972 6.972 0 0 0 23 61h8c3.859 0 7-3.141 7-7v-.338a3.515 3.515 0 0 0 2-3.162 3.48 3.48 0 0 0-1.06-2.5H39a1 1 0 0 0 1-1v-1c0-1.103-.897-2-2-2 0-3.859-3.141-7-7-7h-8c-3.859 0-7 3.141-7 7-1.103 0-2 .897-2 2zm13 4v2h-9.5c-.827 0-1.5-.673-1.5-1.5a1.5 1.5 0 0 1 1.083-1.438L19.4 50.8a.998.998 0 0 0 1.154.032l2.318-1.545 1.42 1.42a1.003 1.003 0 0 0 1.263.125L27 49.868zm4 9h-8a4.989 4.989 0 0 1-5-5h9c0 1.654 1.346 3 3 3s3-1.346 3-3v-.171a2.98 2.98 0 0 0 3-.609V54c0 2.757-2.243 5-5 5zm5.828-7.04c.104-.303.172-.622.172-.96v-1.908c.584.206 1 .756 1 1.408 0 .7-.492 1.307-1.172 1.46zM23 39h8c2.757 0 5 2.243 5 5H25a1 1 0 1 0 0 2h13v.014a2.044 2.044 0 0 0-.658.197 1.02 1.02 0 0 0-.16.1l-3.789 2.895a1.002 1.002 0 0 0-.188 1.402 1.004 1.004 0 0 0 1.402.187l.393-.3V51a1 1 0 0 1-2 0 1 1 0 1 0-2 0v3a1 1 0 0 1-2 0v-3.465l2-1.333.153.102a1 1 0 1 0 1.11-1.664l-.708-.472a.995.995 0 0 0-1.109 0L29 48.132V48a1 1 0 0 0-1.554-.832l-2.318 1.545-1.42-1.42a.997.997 0 0 0-1.262-.125l-2.411 1.607-3.168-2.375a2.022 2.022 0 0 0-.867-.372L21 46a1 1 0 1 0 0-2h-3c0-2.757 2.243-5 5-5z" fill="#333333" opacity="1" data-original="#333333" class=""></path><path d="M22 43a1 1 0 1 0 0-2h-1a1 1 0 1 0 0 2zM26 43h2a1 1 0 1 0 0-2h-2a1 1 0 1 0 0 2zM32 43h1a1 1 0 1 0 0-2h-1a1 1 0 1 0 0 2zM24 36a1 1 0 0 0 1-1v-4a1 1 0 1 0-2 0v4a1 1 0 0 0 1 1zM28.99 35.997c.251 0 .503-.096.698-.284a1.007 1.007 0 0 0 .03-1.408C29.702 34.287 28 32.4 28 27a1 1 0 1 0-2 0c0 6.234 2.059 8.473 2.293 8.707.193.193.445.29.697.29z" fill="#333333" opacity="1" data-original="#333333" class=""></path><path d="M54 0H10a1 1 0 0 0-1 1v6.848L4.046 23.702A.997.997 0 0 0 4 24v39a1 1 0 0 0 1 1h54a1 1 0 0 0 1-1V24a.997.997 0 0 0-.046-.298L55 7.848V1a1 1 0 0 0-1-1zm-1 2v5H11V2zm-5 60H6V25h7.292a1 1 0 1 0 0-2H6.36l4.375-14H52.64l-4.374 14H17a1 1 0 1 0 0 2h31zm10-1.763-3-3.6V28a1 1 0 1 0-2 0v28.637l-3 3.6V25h8zm-4-1.674L56.864 62h-5.729zM57.64 23h-7.28L54 11.351z" fill="#333333" opacity="1" data-original="#333333" class=""></path></g></g></svg>